# xmcd
#
# Track frame offsets:
# 150
# 18114
# 32981
# 48969
# 63517
# 76419
# 92924
# 107977
# 121631
# 135734
# 149494
# 165895
# 179044
# 190819
#
# Disc length: 2755 seconds
#
#
# Revision: 3
# Processed by: cddbd v1.5.1PL0 Copyright (c) Steve Scherf et al.
# Submitted via: FreeRIP 2.90 
#
DISCID=bc0ac10e
DTITLE=Aviões do Forró - VOL.02
DYEAR=1900
DGENRE=
TTITLE0=Jeito de Amar - (Já tomei porres por você)
TTITLE1=Taqui pra ele
TTITLE2=Mulher quanto mais safada
TTITLE3=Barba cabelo e bigode
TTITLE4=Eu tô te querendo
TTITLE5=Coração
TTITLE6=Amor de motel
TTITLE7=Amor proibido
TTITLE8=Não faça isso comigo
TTITLE9=Balançando o esqueleto
TTITLE10=Eu quero ser feliz
TTITLE11=Esperando você voltar
TTITLE12=A diferença está no ar
TTITLE13=Se meu dinheiro desse
EXTD=
EXTT0=
EXTT1=
EXTT2=
EXTT3=
EXTT4=
EXTT5=
EXTT6=
EXTT7=
EXTT8=
EXTT9=
EXTT10=
EXTT11=
EXTT12=
EXTT13=
PLAYORDER=
